<svg width="84" height="84" viewBox="0 0 84 84" fill="none" xmlns="http://www.w3.org/2000/svg">
<path fill-rule="evenodd" clip-rule="evenodd" d="M84 42C84 65.196 65.196 84 42 84C18.804 84 0 65.196 0 42C0 18.804 18.804 0 42 0C65.196 0 84 18.804 84 42ZM43.5051 31.0063C39.42 32.7054 31.2555 36.2222 19.0116 41.5566C17.0234 42.3473 15.9819 43.1208 15.8871 43.8771C15.7269 45.1552 17.3275 45.6586 19.5072 46.3439C19.8036 46.4372 20.1108 46.5338 20.4258 46.6361C22.5702 47.3332 25.4549 48.1487 26.9545 48.1811C28.3148 48.2105 29.833 47.6497 31.5092 46.4987C42.9491 38.7765 48.8543 34.8733 49.2251 34.7892C49.4866 34.7298 49.8491 34.6552 50.0947 34.8735C50.3403 35.0917 50.3161 35.5051 50.2901 35.616C50.1315 36.292 43.8484 42.1333 40.5969 45.1562C39.5833 46.0986 38.8643 46.7671 38.7173 46.9197C38.388 47.2617 38.0524 47.5852 37.7299 47.8961C35.7377 49.8167 34.2437 51.2569 37.8126 53.6088C39.5277 54.739 40.9001 55.6736 42.2693 56.606C43.7646 57.6243 45.256 58.6399 47.1856 59.9048C47.6773 60.2271 48.1468 60.5618 48.6041 60.8878C50.3443 62.1284 51.9076 63.243 53.8391 63.0652C54.9614 62.9619 56.1206 61.9066 56.7094 58.7592C58.1007 51.321 60.8357 35.2046 61.4678 28.5634C61.5231 27.9816 61.4535 27.2369 61.3975 26.91C61.3416 26.5831 61.2247 26.1174 60.7998 25.7726C60.2966 25.3643 59.5197 25.2782 59.1723 25.2843C57.5926 25.3121 55.1689 26.1549 43.5051 31.0063Z" fill="#5E89EF"/>
</svg>
