<svg width="84" height="84" viewBox="0 0 84 84" fill="none" xmlns="http://www.w3.org/2000/svg">
<circle cx="42" cy="42" r="42" fill="#5E89EF"/>
<path d="M29.465 60.027C29.47 60.2891 29.5434 60.5454 29.678 60.7704C29.8126 60.9954 30.0037 61.1813 30.2323 61.3097C30.461 61.438 30.7192 61.5043 30.9814 61.502C31.2436 61.4997 31.5006 61.4289 31.727 61.2965L63.1964 43.2833C63.4286 43.159 63.6228 42.9739 63.7582 42.7479C63.8935 42.5219 63.965 42.2634 63.965 42C63.965 41.7365 63.8935 41.478 63.7582 41.252C63.6228 41.026 63.4286 40.841 63.1964 40.7167L31.727 22.7035C31.5006 22.5711 31.2436 22.5003 30.9814 22.498C30.7192 22.4957 30.461 22.562 30.2323 22.6903C30.0037 22.8186 29.8126 23.0045 29.678 23.2296C29.5434 23.4546 29.47 23.7109 29.465 23.973V60.027Z" stroke="white" stroke-width="2" stroke-linecap="round" stroke-linejoin="round"/>
<path d="M29.9189 22.9189L54.9841 47.9841" stroke="white" stroke-width="2" stroke-linecap="round" stroke-linejoin="round"/>
<path d="M29.9191 61.081L54.9841 36.016" stroke="white" stroke-width="2" stroke-linecap="round" stroke-linejoin="round"/>
</svg>
